# xmcd
#
# Track frame offsets:
#	150
#	17714
#	34631
#	45975
#	65025
#	77905
#	94970
#	109987
#	127455
#	144947
#	164580
#	176116
#
# Disc length: 2547 seconds
#
# Revision: 0
# Processed by: cddbd v1.5.2PL0 Copyright (c) Steve Scherf et al.
# Submitted via: audiograbber 1.83.01
#
DISCID=ac09f10c
DTITLE=Alex Behning - Trickster und Propheten
DYEAR=2016
DGENRE=Deutsch
TTITLE0=Die Hand, die das Geld entgegennimmt
TTITLE1=Wenn du mal wieder im Norden bist
TTITLE2=Liebe ist ein Fluch
TTITLE3=Elvira Madigan
TTITLE4=Frisches Gras
TTITLE5=Himmel voller Geigen
TTITLE6=Seit wir Freunde sind
TTITLE7=Neuigkeiten aus dem Paradies
TTITLE8=Heather
TTITLE9=Was hast du gesehen
TTITLE10=Rockabilly
TTITLE11=Wir sehen uns wieder
EXTD=
EXTT0=
EXTT1=
EXTT2=
EXTT3=
EXTT4=
EXTT5=
EXTT6=
EXTT7=
EXTT8=
EXTT9=
EXTT10=
EXTT11=
PLAYORDER=
